#!OML:ASF \\sashay\E\Suitcase\Project 1\Capture day 1\Session 1\Male1.ASF
:FULLY-SPECIFIED
:DEGREES
313
root -0.705861 17.5666 8.25146 9.12705 -12.7477 4.29984
lowerback 31.2925 -2.49942 13.9364
upperback 10.1805 1.66863 11.9172
thorax -4.80395 0.620651 4.77869
lowerneck -10.5526 -7.55151 -7.43628
upperneck 16.7609 -8.11095 -5.26448
head 6.99089 -4.78929 -1.24402
rclavicle -1.59028e-014 -9.22361e-014
rhumerus -0.62072 -5.10734 -50.6447
rradius 30.1496
rwrist -6.66095
rhand -17.5178 22.8861
rfingers 7.12502
rthumb 8.73572 -6.91316
lclavicle -1.59028e-014 -9.22361e-014
lhumerus -33.3207 -15.389 99.7019
lradius 54.0814
lwrist 6.16015
lhand -0.419501 40.8464
lfingers 7.12502
lthumb 25.1885 69.2043
rfemur -25.1647 -0.316826 13.8544
rtibia 26.512
rfoot -8.3303 -3.75401
rtoes 10.2871
lfemur -17.2603 3.48562 -19.8398
ltibia 19.8214
lfoot -6.80957 9.69655
ltoes 6.20823
314
root -0.694599 17.5595 8.27209 8.57181 -12.459 3.78741
lowerback 31.3965 -2.89358 14.3057
upperback 10.0761 1.33667 11.9875
thorax -4.93175 0.456291 4.78606
lowerneck -10.3487 -7.3251 -7.37517
upperneck 16.8081 -7.73182 -5.87887
head 6.94255 -4.65891 -1.40555
rclavicle 9.54166e-015 -1.145e-013
rhumerus -1.24403 -4.00969 -50.7146
rradius 30.633
rwrist -7.09673
rhand -17.4344 22.503
rfingers 7.12502
rthumb 8.81616 -7.29286
lclavicle 9.54166e-015 -1.145e-013
lhumerus -33.4837 -14.7759 99.6715
lradius 54.0223
lwrist 6.1439
lhand -0.520625 41.172
lfingers 7.12502
lthumb 25.0916 69.5434
rfemur -24.1301 -0.350462 14.3949
rtibia 26.2073
rfoot -8.39458 -3.92097
rtoes 9.83224
lfemur -16.5174 3.24098 -19.2382
ltibia 19.8912
lfoot -7.21354 9.96705
ltoes 6.06789
315
root -0.67572 17.5591 8.27567 8.4515 -12.5006 3.76308
lowerback 31.139 -2.79977 14.1433
upperback 10.0007 1.36122 11.9221
thorax -4.92422 0.47071 4.77991
lowerneck -10.4296 -7.22115 -7.32416
upperneck 16.8096 -7.55842 -6.07222
head 6.94707 -4.59159 -1.46219
rclavicle -4.45278e-014 3.81667e-014
rhumerus -1.73779 -4.19828 -50.9129
rradius 30.72
rwrist -6.95763
rhand -17.4231 21.9765
rfingers 7.12502
rthumb 8.82709 -7.81885
lclavicle -4.45278e-014 3.81667e-014
lhumerus -33.4011 -14.756 99.65
lradius 53.6894
lwrist 5.88715
lhand 0.0066454 41.1749
lfingers 7.12502
lthumb 25.5967 69.4748
rfemur -23.8897 -0.671797 14.4069
rtibia 26.0606
rfoot -8.32034 -3.63089
rtoes 10.9797
lfemur -16.3336 3.17156 -19.3013
ltibia 19.8753
lfoot -7.15256 9.93049
ltoes 6.22937
316
root -0.681343 17.5594 8.29537 8.22414 -12.4234 3.19188
lowerback 30.9716 -2.94334 14.4854
upperback 9.86314 1.26037 11.7679
thorax -4.97495 0.425698 4.47525
lowerneck -10.6632 -7.12182 -7.49611
upperneck 17.4265 -7.43547 -5.46736
head 7.21924 -4.51067 -1.25968
rclavicle -4.13472e-014 -2.8625e-014
rhumerus -2.50541 -4.4094 -51.6045
rradius 30.7132
rwrist -6.04142
rhand -17.5416 22.5924
rfingers 7.12502
rthumb 8.7127 -7.20781
lclavicle -4.13472e-014 -2.8625e-014
lhumerus -33.7189 -14.7799 99.3734
lradius 53.5146
lwrist 5.84299
lhand -0.360091 41.2144
lfingers 7.12502
lthumb 25.2454 69.5643
rfemur -23.2254 -0.332727 15.0155
rtibia 25.6429
rfoot -8.31514 -3.88626
rtoes 10.0566
lfemur -15.9335 3.12838 -18.6188
ltibia 20.0218
lfoot -7.55358 10.0309
ltoes 6.26807
317
root -0.672746 17.5585 8.30647 8.16186 -12.5859 3.58147
lowerback 30.3345 -2.73784 13.8864
upperback 9.85881 1.19367 11.5297
thorax -4.76194 0.410899 4.51609
lowerneck -10.4906 -6.78367 -6.96503
upperneck 16.7451 -7.10247 -5.54872
head 6.93509 -4.30661 -1.30657
rclavicle -1.27222e-014 8.26944e-014
rhumerus -2.9263 -4.3983 -51.926
rradius 30.7594
rwrist -6.06111
rhand -17.296 22.0876
rfingers 7.12502
rthumb 8.9497 -7.70256
lclavicle -1.27222e-014 8.26944e-014
lhumerus -33.6156 -14.8566 99.1483
lradius 53.3641
lwrist 5.79304
lhand 0.00114257 41.3726
lfingers 7.12502
lthumb 25.5915 69.6732
rfemur -23.1164 -0.386791 14.5517
rtibia 25.4792
rfoot -8.2441 -3.76632
rtoes 9.98136
lfemur -15.8614 3.10218 -19.1075
ltibia 19.8979
lfoot -7.25109 10.1105
ltoes 6.39145
318
root -0.684774 17.5544 8.329 8.08606 -13.05 2.53158
lowerback 29.981 -2.31777 13.6536
upperback 10.0015 1.58061 12.1448
thorax -4.51454 0.586231 5.16133
lowerneck -10.6984 -6.77998 -7.23775
upperneck 16.9586 -6.92096 -6.15052
head 7.03448 -4.29965 -1.45591
rclavicle 4.45278e-014 3.81667e-014
rhumerus -3.5154 -3.71729 -51.4703
rradius 31.137
rwrist -6.30922
rhand -17.2473 21.609
rfingers 7.12502
rthumb 8.99674 -8.17917
lclavicle 4.45278e-014 3.81667e-014
lhumerus -33.4408 -14.5376 99.7041
lradius 52.8508
lwrist 5.47825
lhand -0.596072 41.2148
lfingers 7.12502
lthumb 25.0193 69.5964
rfemur -22.7635 0.687839 15.6361
rtibia 25.2493
rfoot -8.4809 -4.22334
rtoes 11.392
lfemur -15.3778 3.39491 -17.9237
ltibia 19.8078
lfoot -7.34323 10.334
ltoes 6.43863
319
root -0.663311 17.5531 8.35184 7.6855 -12.5955 3.59277
lowerback 29.273 -2.21746 12.4126
upperback 9.93843 1.25392 12.1756
thorax -4.38729 0.435254 5.9034
lowerneck -11.158 -6.85841 -7.14604
upperneck 17.1213 -6.83547 -7.08709
head 7.13487 -4.34895 -1.78733
rclavicle -3.18055e-015 -5.40694e-014
rhumerus -4.11253 -3.67686 -51.29
rradius 31.3549
rwrist -5.98451
rhand -17.1744 21.1851
rfingers 7.12502
rthumb 9.06705 -8.60006
lclavicle -3.18055e-015 -5.40694e-014
lhumerus -33.212 -14.0418 100.067
lradius 52.4366
lwrist 5.32077
lhand -0.606319 40.8373
lfingers 7.12502
lthumb 25.0095 69.2202
rfemur -22.3408 -0.468512 14.5113
rtibia 25.1965
rfoot -8.53274 -3.71012
rtoes 11.5193
lfemur -15.0231 2.99131 -19.1732
ltibia 19.6574
lfoot -7.72961 10.2193
ltoes 6.6741
